<?xml version="1.0" standalone="no"?><!DOCTYPE svg PUBLIC "-//W3C//DTD SVG 1.1//EN" "http://www.w3.org/Graphics/SVG/1.1/DTD/svg11.dtd"><svg t="1557758568087" class="icon" style="" viewBox="0 0 1024 1024" version="1.1" xmlns="http://www.w3.org/2000/svg" p-id="4373" xmlns:xlink="http://www.w3.org/1999/xlink" width="200" height="200"><defs><style type="text/css"></style></defs><path d="M958.472095 732.626211c0 4.223736 1.471908 8.31948 1.471908 14.07912 0 109.43316-123.960252 273.198925-258.287857 273.198925-56.060496 0-113.656896-38.909568-175.66902-38.909568-70.843572 0-129.911881 43.005312-180.020749 43.005312-69.43566 0-131.383789-56.892444-181.620649-144.246985C94.974064 760.464471 64 623.129054 64 534.302606 64 366.505093 216.054497 237.489157 369.516905 237.489157c73.787388 0 101.881632 54.07662 169.781389 54.07662 85.562652 0 137.271421-56.828448 199.219549-56.828448 88.570464 0 146.166865 49.91688 188.916192 99.83376l-2.943816 1.343916c-64.891944 43.005312-100.345728 109.625148-100.345728 185.908381 0 94.330104 47.229048 159.542029 134.327604 203.891257v6.911568zM549.089682 256.047997v-5.375664a208.626961 208.626961 0 0 1-4.351728-38.845572c0-113.91288 91.002312-186.356353 192.307981-211.762765l1.407912 5.375664c1.535904 13.43916 2.943816 25.406412 2.943816 34.813824C741.397663 159.542029 648.923442 227.889757 549.089682 256.047997z" p-id="4374" fill="#fdfdfd"></path></svg>